<svg width="347" height="613" viewBox="0 0 347 613" fill="none" xmlns="http://www.w3.org/2000/svg">
<g filter="url(#filter0_d_1550_14929)">
<path d="M41 5C41 6.6 39.6667 7 39 7C40.6 7 41 8.66667 41 9.5C41 7.9 42.3333 7.16667 43 7C41.4 7 41 5.66667 41 5Z" fill="#F7F4FD"/>
<path d="M41 5C41 6.6 39.6667 7 39 7C40.6 7 41 8.66667 41 9.5C41 7.9 42.3333 7.16667 43 7C41.4 7 41 5.66667 41 5Z" stroke="#F7F4FD" stroke-linecap="round" stroke-linejoin="round"/>
</g>
<g filter="url(#filter1_d_1550_14929)">
<path d="M311 244C311 245.6 309.667 246 309 246C310.6 246 311 247.667 311 248.5C311 246.9 312.333 246.167 313 246C311.4 246 311 244.667 311 244Z" fill="#F7F4FD"/>
<path d="M311 244C311 245.6 309.667 246 309 246C310.6 246 311 247.667 311 248.5C311 246.9 312.333 246.167 313 246C311.4 246 311 244.667 311 244Z" stroke="#F7F4FD" stroke-linecap="round" stroke-linejoin="round"/>
</g>
<g filter="url(#filter2_d_1550_14929)">
<path d="M287 82C287 85.2 284.333 86 283 86C286.2 86 287 89.3333 287 91C287 87.8 289.667 86.3333 291 86C287.8 86 287 83.3333 287 82Z" fill="#F7F4FD"/>
<path d="M287 82C287 85.2 284.333 86 283 86C286.2 86 287 89.3333 287 91C287 87.8 289.667 86.3333 291 86C287.8 86 287 83.3333 287 82Z" stroke="#F7F4FD" stroke-linecap="round" stroke-linejoin="round"/>
</g>
<g filter="url(#filter3_d_1550_14929)">
<path d="M35 139C35 142.2 32.3333 143 31 143C34.2 143 35 146.333 35 148C35 144.8 37.6667 143.333 39 143C35.8 143 35 140.333 35 139Z" fill="#F7F4FD"/>
<path d="M35 139C35 142.2 32.3333 143 31 143C34.2 143 35 146.333 35 148C35 144.8 37.6667 143.333 39 143C35.8 143 35 140.333 35 139Z" stroke="#F7F4FD" stroke-linecap="round" stroke-linejoin="round"/>
</g>
<g filter="url(#filter4_d_1550_14929)">
<path d="M338 515C338 518.2 335.333 519 334 519C337.2 519 338 522.333 338 524C338 520.8 340.667 519.333 342 519C338.8 519 338 516.333 338 515Z" fill="#F7F4FD"/>
<path d="M338 515C338 518.2 335.333 519 334 519C337.2 519 338 522.333 338 524C338 520.8 340.667 519.333 342 519C338.8 519 338 516.333 338 515Z" stroke="#F7F4FD" stroke-linecap="round" stroke-linejoin="round"/>
</g>
<g filter="url(#filter5_d_1550_14929)">
<path d="M13 599C13 602.2 10.3333 603 9 603C12.2 603 13 606.333 13 608C13 604.8 15.6667 603.333 17 603C13.8 603 13 600.333 13 599Z" fill="#F7F4FD"/>
<path d="M13 599C13 602.2 10.3333 603 9 603C12.2 603 13 606.333 13 608C13 604.8 15.6667 603.333 17 603C13.8 603 13 600.333 13 599Z" stroke="#F7F4FD" stroke-linecap="round" stroke-linejoin="round"/>
</g>
<g filter="url(#filter6_d_1550_14929)">
<circle cx="343" cy="109" r="1" fill="#F7F4FD"/>
</g>
<g filter="url(#filter7_d_1550_14929)">
<circle cx="3" cy="315" r="1" fill="#F7F4FD"/>
</g>
<g filter="url(#filter8_d_1550_14929)">
<circle cx="197" cy="487" r="1" fill="#F7F4FD"/>
</g>
<g filter="url(#filter9_d_1550_14929)">
<circle cx="83" cy="432" r="1" fill="#F7F4FD"/>
</g>
<defs>
<filter id="filter0_d_1550_14929" x="34.3" y="0.3" width="13.4" height="13.9" filterUnits="userSpaceOnUse" color-interpolation-filters="sRGB">
<feFlood flood-opacity="0" result="BackgroundImageFix"/>
<feColorMatrix in="SourceAlpha" type="matrix" values="0 0 0 0 0 0 0 0 0 0 0 0 0 0 0 0 0 0 127 0" result="hardAlpha"/>
<feMorphology radius="0.2" operator="dilate" in="SourceAlpha" result="effect1_dropShadow_1550_14929"/>
<feOffset/>
<feGaussianBlur stdDeviation="2"/>
<feColorMatrix type="matrix" values="0 0 0 0 0.968627 0 0 0 0 0.956863 0 0 0 0 0.992157 0 0 0 1 0"/>
<feBlend mode="normal" in2="BackgroundImageFix" result="effect1_dropShadow_1550_14929"/>
<feBlend mode="normal" in="SourceGraphic" in2="effect1_dropShadow_1550_14929" result="shape"/>
</filter>
<filter id="filter1_d_1550_14929" x="304.3" y="239.3" width="13.4" height="13.9" filterUnits="userSpaceOnUse" color-interpolation-filters="sRGB">
<feFlood flood-opacity="0" result="BackgroundImageFix"/>
<feColorMatrix in="SourceAlpha" type="matrix" values="0 0 0 0 0 0 0 0 0 0 0 0 0 0 0 0 0 0 127 0" result="hardAlpha"/>
<feMorphology radius="0.2" operator="dilate" in="SourceAlpha" result="effect1_dropShadow_1550_14929"/>
<feOffset/>
<feGaussianBlur stdDeviation="2"/>
<feColorMatrix type="matrix" values="0 0 0 0 0.968627 0 0 0 0 0.956863 0 0 0 0 0.992157 0 0 0 1 0"/>
<feBlend mode="normal" in2="BackgroundImageFix" result="effect1_dropShadow_1550_14929"/>
<feBlend mode="normal" in="SourceGraphic" in2="effect1_dropShadow_1550_14929" result="shape"/>
</filter>
<filter id="filter2_d_1550_14929" x="278.3" y="77.3" width="17.4" height="18.4" filterUnits="userSpaceOnUse" color-interpolation-filters="sRGB">
<feFlood flood-opacity="0" result="BackgroundImageFix"/>
<feColorMatrix in="SourceAlpha" type="matrix" values="0 0 0 0 0 0 0 0 0 0 0 0 0 0 0 0 0 0 127 0" result="hardAlpha"/>
<feMorphology radius="0.2" operator="dilate" in="SourceAlpha" result="effect1_dropShadow_1550_14929"/>
<feOffset/>
<feGaussianBlur stdDeviation="2"/>
<feColorMatrix type="matrix" values="0 0 0 0 0.968627 0 0 0 0 0.956863 0 0 0 0 0.992157 0 0 0 1 0"/>
<feBlend mode="normal" in2="BackgroundImageFix" result="effect1_dropShadow_1550_14929"/>
<feBlend mode="normal" in="SourceGraphic" in2="effect1_dropShadow_1550_14929" result="shape"/>
</filter>
<filter id="filter3_d_1550_14929" x="26.3" y="134.3" width="17.4" height="18.4" filterUnits="userSpaceOnUse" color-interpolation-filters="sRGB">
<feFlood flood-opacity="0" result="BackgroundImageFix"/>
<feColorMatrix in="SourceAlpha" type="matrix" values="0 0 0 0 0 0 0 0 0 0 0 0 0 0 0 0 0 0 127 0" result="hardAlpha"/>
<feMorphology radius="0.2" operator="dilate" in="SourceAlpha" result="effect1_dropShadow_1550_14929"/>
<feOffset/>
<feGaussianBlur stdDeviation="2"/>
<feColorMatrix type="matrix" values="0 0 0 0 0.968627 0 0 0 0 0.956863 0 0 0 0 0.992157 0 0 0 1 0"/>
<feBlend mode="normal" in2="BackgroundImageFix" result="effect1_dropShadow_1550_14929"/>
<feBlend mode="normal" in="SourceGraphic" in2="effect1_dropShadow_1550_14929" result="shape"/>
</filter>
<filter id="filter4_d_1550_14929" x="329.3" y="510.3" width="17.4" height="18.4" filterUnits="userSpaceOnUse" color-interpolation-filters="sRGB">
<feFlood flood-opacity="0" result="BackgroundImageFix"/>
<feColorMatrix in="SourceAlpha" type="matrix" values="0 0 0 0 0 0 0 0 0 0 0 0 0 0 0 0 0 0 127 0" result="hardAlpha"/>
<feMorphology radius="0.2" operator="dilate" in="SourceAlpha" result="effect1_dropShadow_1550_14929"/>
<feOffset/>
<feGaussianBlur stdDeviation="2"/>
<feColorMatrix type="matrix" values="0 0 0 0 0.968627 0 0 0 0 0.956863 0 0 0 0 0.992157 0 0 0 1 0"/>
<feBlend mode="normal" in2="BackgroundImageFix" result="effect1_dropShadow_1550_14929"/>
<feBlend mode="normal" in="SourceGraphic" in2="effect1_dropShadow_1550_14929" result="shape"/>
</filter>
<filter id="filter5_d_1550_14929" x="4.3" y="594.3" width="17.4" height="18.4" filterUnits="userSpaceOnUse" color-interpolation-filters="sRGB">
<feFlood flood-opacity="0" result="BackgroundImageFix"/>
<feColorMatrix in="SourceAlpha" type="matrix" values="0 0 0 0 0 0 0 0 0 0 0 0 0 0 0 0 0 0 127 0" result="hardAlpha"/>
<feMorphology radius="0.2" operator="dilate" in="SourceAlpha" result="effect1_dropShadow_1550_14929"/>
<feOffset/>
<feGaussianBlur stdDeviation="2"/>
<feColorMatrix type="matrix" values="0 0 0 0 0.968627 0 0 0 0 0.956863 0 0 0 0 0.992157 0 0 0 1 0"/>
<feBlend mode="normal" in2="BackgroundImageFix" result="effect1_dropShadow_1550_14929"/>
<feBlend mode="normal" in="SourceGraphic" in2="effect1_dropShadow_1550_14929" result="shape"/>
</filter>
<filter id="filter6_d_1550_14929" x="340.8" y="106.8" width="4.4" height="4.4" filterUnits="userSpaceOnUse" color-interpolation-filters="sRGB">
<feFlood flood-opacity="0" result="BackgroundImageFix"/>
<feColorMatrix in="SourceAlpha" type="matrix" values="0 0 0 0 0 0 0 0 0 0 0 0 0 0 0 0 0 0 127 0" result="hardAlpha"/>
<feMorphology radius="0.2" operator="dilate" in="SourceAlpha" result="effect1_dropShadow_1550_14929"/>
<feOffset/>
<feGaussianBlur stdDeviation="0.5"/>
<feColorMatrix type="matrix" values="0 0 0 0 0.968627 0 0 0 0 0.956863 0 0 0 0 0.992157 0 0 0 1 0"/>
<feBlend mode="normal" in2="BackgroundImageFix" result="effect1_dropShadow_1550_14929"/>
<feBlend mode="normal" in="SourceGraphic" in2="effect1_dropShadow_1550_14929" result="shape"/>
</filter>
<filter id="filter7_d_1550_14929" x="0.8" y="312.8" width="4.4" height="4.4" filterUnits="userSpaceOnUse" color-interpolation-filters="sRGB">
<feFlood flood-opacity="0" result="BackgroundImageFix"/>
<feColorMatrix in="SourceAlpha" type="matrix" values="0 0 0 0 0 0 0 0 0 0 0 0 0 0 0 0 0 0 127 0" result="hardAlpha"/>
<feMorphology radius="0.2" operator="dilate" in="SourceAlpha" result="effect1_dropShadow_1550_14929"/>
<feOffset/>
<feGaussianBlur stdDeviation="0.5"/>
<feColorMatrix type="matrix" values="0 0 0 0 0.968627 0 0 0 0 0.956863 0 0 0 0 0.992157 0 0 0 1 0"/>
<feBlend mode="normal" in2="BackgroundImageFix" result="effect1_dropShadow_1550_14929"/>
<feBlend mode="normal" in="SourceGraphic" in2="effect1_dropShadow_1550_14929" result="shape"/>
</filter>
<filter id="filter8_d_1550_14929" x="194.8" y="484.8" width="4.4" height="4.4" filterUnits="userSpaceOnUse" color-interpolation-filters="sRGB">
<feFlood flood-opacity="0" result="BackgroundImageFix"/>
<feColorMatrix in="SourceAlpha" type="matrix" values="0 0 0 0 0 0 0 0 0 0 0 0 0 0 0 0 0 0 127 0" result="hardAlpha"/>
<feMorphology radius="0.2" operator="dilate" in="SourceAlpha" result="effect1_dropShadow_1550_14929"/>
<feOffset/>
<feGaussianBlur stdDeviation="0.5"/>
<feColorMatrix type="matrix" values="0 0 0 0 0.968627 0 0 0 0 0.956863 0 0 0 0 0.992157 0 0 0 1 0"/>
<feBlend mode="normal" in2="BackgroundImageFix" result="effect1_dropShadow_1550_14929"/>
<feBlend mode="normal" in="SourceGraphic" in2="effect1_dropShadow_1550_14929" result="shape"/>
</filter>
<filter id="filter9_d_1550_14929" x="80.8" y="429.8" width="4.4" height="4.4" filterUnits="userSpaceOnUse" color-interpolation-filters="sRGB">
<feFlood flood-opacity="0" result="BackgroundImageFix"/>
<feColorMatrix in="SourceAlpha" type="matrix" values="0 0 0 0 0 0 0 0 0 0 0 0 0 0 0 0 0 0 127 0" result="hardAlpha"/>
<feMorphology radius="0.2" operator="dilate" in="SourceAlpha" result="effect1_dropShadow_1550_14929"/>
<feOffset/>
<feGaussianBlur stdDeviation="0.5"/>
<feColorMatrix type="matrix" values="0 0 0 0 0.968627 0 0 0 0 0.956863 0 0 0 0 0.992157 0 0 0 1 0"/>
<feBlend mode="normal" in2="BackgroundImageFix" result="effect1_dropShadow_1550_14929"/>
<feBlend mode="normal" in="SourceGraphic" in2="effect1_dropShadow_1550_14929" result="shape"/>
</filter>
</defs>
</svg>
